<svg width="224" height="235" viewBox="0 0 224 235" fill="none" xmlns="http://www.w3.org/2000/svg">
<path d="M33.7182 189.155L39.4063 197.823C40.0296 198.773 40.7555 199.34 41.584 199.523C42.4037 199.693 43.2617 199.484 44.158 198.896C45.0676 198.299 45.6075 197.591 45.7777 196.771C45.9391 195.938 45.7081 195.047 45.0849 194.097L39.3967 185.428L42.226 183.572L47.901 192.22C48.6822 193.411 49.0841 194.592 49.1067 195.764C49.1338 196.913 48.8487 197.981 48.2513 198.966C47.6673 199.942 46.8469 200.777 45.7901 201.471C44.7467 202.155 43.6608 202.571 42.5326 202.718C41.4177 202.857 40.3451 202.68 39.3146 202.189C38.2754 201.685 37.3652 200.837 36.584 199.646L30.909 190.998L33.7182 189.155ZM47.7493 179.947L56.94 193.953L54.1308 195.797L44.9402 181.791L47.7493 179.947ZM54.7708 168.192L64.2056 194.381L61.4566 196.185L52.0218 169.996L54.7708 168.192ZM63.0523 169.906L68.7405 178.574C69.3638 179.524 70.0896 180.09 70.9182 180.274C71.7379 180.444 72.5959 180.235 73.4922 179.647C74.4018 179.05 74.9417 178.342 75.1119 177.522C75.2732 176.689 75.0423 175.797 74.4191 174.848L68.7309 166.179L71.5602 164.323L77.2352 172.971C78.0164 174.162 78.4183 175.343 78.4408 176.515C78.468 177.664 78.1828 178.731 77.5854 179.717C77.0014 180.693 76.181 181.528 75.1242 182.222C74.0808 182.906 72.995 183.322 71.8667 183.469C70.7519 183.608 69.6792 183.431 68.6488 182.94C67.6096 182.435 66.6994 181.588 65.9182 180.397L60.2432 171.749L63.0523 169.906ZM91.8524 171.044L85.7282 168.317L86.0735 174.836L82.9031 176.916L82.6827 166.956L73.6523 162.95L76.8829 160.83L82.9939 163.537L82.6417 157.051L85.8121 154.971L86.0393 164.897L95.0829 168.924L91.8524 171.044ZM97.7075 147.165C99.179 146.199 100.659 145.64 102.146 145.486C103.647 145.324 105.05 145.581 106.354 146.256C107.663 146.909 108.778 147.938 109.7 149.342C110.622 150.747 111.122 152.18 111.2 153.64C111.283 155.079 110.951 156.454 110.205 157.767C109.472 159.07 108.37 160.205 106.898 161.171L102.002 164.383L92.8115 150.378L97.7075 147.165ZM105.231 158.849C106.702 157.883 107.576 156.736 107.852 155.406C108.128 154.077 107.788 152.683 106.831 151.225C105.874 149.767 104.726 148.893 103.388 148.604C102.042 148.301 100.632 148.633 99.1609 149.598L97.1744 150.902L103.244 160.152L105.231 158.849ZM122.914 142.365C123.177 142.767 123.387 143.145 123.544 143.502L115.418 148.834C116.011 149.593 116.705 150.037 117.498 150.167C118.292 150.297 119.05 150.125 119.772 149.651C120.815 148.967 121.264 148.031 121.117 146.845L124.147 144.857C124.528 146.138 124.492 147.425 124.039 148.717C123.577 149.996 122.684 151.07 121.359 151.939C120.289 152.642 119.173 153.04 118.009 153.133C116.85 153.205 115.745 152.964 114.693 152.41C113.654 151.848 112.762 150.998 112.015 149.861C111.261 148.711 110.832 147.547 110.73 146.37C110.627 145.194 110.844 144.095 111.379 143.073C111.915 142.052 112.731 141.182 113.828 140.462C114.885 139.768 115.977 139.377 117.105 139.288C118.246 139.189 119.321 139.412 120.328 139.957C121.341 140.479 122.203 141.282 122.914 142.365ZM119.477 143.472C118.99 142.758 118.352 142.354 117.562 142.26C116.764 142.152 115.998 142.339 115.262 142.822C114.566 143.279 114.118 143.879 113.917 144.623C113.721 145.345 113.816 146.116 114.2 146.935L119.477 143.472ZM133.142 144.208C132.232 144.805 131.311 145.18 130.378 145.333C129.436 145.472 128.567 145.402 127.77 145.121C126.987 144.831 126.351 144.358 125.863 143.702L128.692 141.846C129.027 142.239 129.467 142.457 130.012 142.501C130.571 142.536 131.125 142.374 131.673 142.014C132.208 141.663 132.553 141.284 132.707 140.876C132.874 140.461 132.848 140.085 132.628 139.751C132.391 139.39 132.028 139.245 131.54 139.317C131.056 139.367 130.342 139.548 129.399 139.861C128.438 140.204 127.62 140.444 126.944 140.582C126.282 140.71 125.612 140.681 124.935 140.494C124.27 140.298 123.692 139.826 123.201 139.077C122.797 138.461 122.602 137.785 122.617 137.049C122.644 136.303 122.889 135.568 123.352 134.844C123.827 134.111 124.513 133.45 125.409 132.862C126.734 131.993 128.01 131.634 129.238 131.785C130.458 131.923 131.476 132.527 132.294 133.598L129.605 135.362C129.275 134.947 128.86 134.722 128.358 134.687C127.862 134.631 127.339 134.782 126.791 135.142C126.282 135.476 125.949 135.828 125.791 136.2C125.647 136.563 125.684 136.911 125.903 137.246C126.149 137.62 126.525 137.785 127.031 137.74C127.529 137.681 128.238 137.493 129.159 137.176C130.093 136.85 130.892 136.623 131.554 136.495C132.216 136.366 132.883 136.407 133.556 136.616C134.234 136.803 134.821 137.26 135.317 137.987C135.738 138.629 135.935 139.322 135.908 140.068C135.893 140.804 135.648 141.539 135.173 142.272C134.702 142.983 134.025 143.629 133.142 144.208ZM132.965 126.268C132.47 126.593 131.954 126.711 131.418 126.623C130.886 126.513 130.466 126.223 130.159 125.755C129.852 125.287 129.758 124.794 129.877 124.275C130.001 123.735 130.31 123.302 130.805 122.977C131.3 122.653 131.813 122.545 132.345 122.656C132.881 122.744 133.303 123.022 133.611 123.49C133.918 123.959 134.009 124.463 133.886 125.004C133.767 125.522 133.46 125.943 132.965 126.268ZM135.218 126.684L142.513 137.8L139.703 139.644L132.409 128.527L135.218 126.684ZM142.229 121.825C143.059 121.281 143.897 120.969 144.746 120.891C145.585 120.8 146.357 120.896 147.06 121.181L146.02 119.596L148.849 117.739L156.196 128.936C156.872 129.966 157.266 131.018 157.378 132.093C157.499 133.181 157.298 134.232 156.776 135.244C156.263 136.27 155.417 137.169 154.24 137.941C152.662 138.977 151.123 139.461 149.623 139.392C148.137 139.315 146.91 138.685 145.943 137.502L148.732 135.671C149.213 136.083 149.79 136.278 150.465 136.256C151.162 136.239 151.858 136.003 152.554 135.546C153.37 135.011 153.869 134.329 154.053 133.5C154.245 132.685 154.017 131.782 153.367 130.793L152.235 129.067C152.216 129.826 152 130.59 151.586 131.359C151.185 132.119 150.577 132.767 149.761 133.302C148.824 133.917 147.81 134.238 146.718 134.265C145.627 134.293 144.568 134.021 143.543 133.45C142.522 132.857 141.638 131.992 140.892 130.855C140.155 129.731 139.722 128.59 139.592 127.431C139.477 126.263 139.646 125.194 140.102 124.226C140.57 123.248 141.28 122.448 142.229 121.825ZM149.667 125.154C149.219 124.472 148.704 123.978 148.12 123.672C147.528 123.352 146.921 123.215 146.299 123.259C145.669 123.29 145.093 123.477 144.571 123.819C144.05 124.161 143.651 124.604 143.377 125.148C143.102 125.692 142.987 126.304 143.031 126.983C143.079 127.64 143.323 128.303 143.762 128.972C144.2 129.641 144.72 130.142 145.322 130.474C145.927 130.785 146.539 130.929 147.156 130.907C147.786 130.876 148.355 130.694 148.864 130.36C149.385 130.018 149.79 129.571 150.078 129.018C150.358 128.452 150.473 127.84 150.425 127.183C150.367 126.513 150.115 125.836 149.667 125.154ZM157.648 111.736C158.972 110.867 160.319 110.586 161.688 110.894C163.048 111.187 164.219 112.084 165.203 113.582L169.482 120.103L166.673 121.946L162.644 115.806C162.064 114.924 161.4 114.393 160.652 114.214C159.894 114.022 159.134 114.177 158.372 114.677C157.596 115.186 157.138 115.831 157 116.611C156.865 117.369 157.088 118.189 157.667 119.072L161.696 125.212L158.887 127.055L151.593 115.939L154.402 114.096L155.31 115.48C155.369 114.753 155.598 114.067 155.998 113.422C156.402 112.754 156.952 112.193 157.648 111.736ZM178.682 105.77C178.945 106.171 179.155 106.55 179.313 106.906L171.186 112.239C171.78 112.998 172.473 113.442 173.266 113.572C174.06 113.702 174.818 113.53 175.54 113.056C176.584 112.371 177.032 111.436 176.885 110.25L179.915 108.262C180.296 109.543 180.26 110.83 179.807 112.122C179.345 113.401 178.452 114.475 177.128 115.344C176.058 116.047 174.941 116.444 173.777 116.538C172.619 116.609 171.513 116.368 170.461 115.815C169.422 115.253 168.53 114.403 167.784 113.266C167.029 112.116 166.6 110.952 166.498 109.775C166.395 108.598 166.612 107.499 167.147 106.478C167.683 105.457 168.499 104.587 169.596 103.867C170.653 103.173 171.745 102.782 172.873 102.692C174.014 102.594 175.089 102.817 176.097 103.362C177.109 103.884 177.971 104.687 178.682 105.77ZM175.246 106.877C174.758 106.163 174.12 105.759 173.331 105.665C172.533 105.557 171.766 105.744 171.03 106.227C170.334 106.683 169.886 107.284 169.686 108.028C169.49 108.75 169.584 109.52 169.968 110.34L175.246 106.877ZM181.185 98.9895C181.16 98.1639 181.325 97.3951 181.681 96.6833C182.05 95.9626 182.609 95.3565 183.358 94.8649L185.294 97.8146L184.551 98.3017C183.668 98.8811 183.135 99.5273 182.953 100.24C182.783 100.945 183.037 101.812 183.713 102.842L187.347 108.38L184.538 110.224L177.243 99.1072L180.052 97.2638L181.185 98.9895Z" fill="url(#paint0_linear_74_2)"/>
<g clip-path="url(#clip0_74_2)">
<path d="M54.4166 0.452492C55.3825 1.29842 56.2899 2.20088 57.1322 3.15329C67.9718 16.7205 77.1629 31.289 84.5131 46.5541C85.7362 49.0642 86.6934 51.6597 87.3701 54.3006C88.4454 58.6847 85.6988 60.8469 81.0692 59.1792C76.4395 57.5115 72.1329 55.4406 67.7137 53.6653C65.5232 52.7873 63.2669 51.8014 60.5106 53.0513C60.8268 54.7199 61.2797 56.3754 61.8652 58.0029C63.3108 61.4675 64.9562 64.8722 66.7939 68.201C74.0769 80.9822 81.4804 93.7386 89.2569 107.163C90.6273 101.597 86.7351 95.9556 89.4178 91.3167L90.6139 91.2567C91.2421 92.2926 91.7381 93.3847 92.0907 94.5085C93.662 102.804 95.0637 111.078 96.524 119.402C96.8444 121.154 97.0734 123.255 94.9749 123.747C93.401 123.924 91.7573 123.573 90.3299 122.755C86.6769 120.842 83.1654 118.648 79.6207 116.544C78.683 116.104 77.8352 115.496 77.1303 114.757C76.6182 113.835 76.2463 112.86 76.0261 111.864C77.0646 111.639 78.2193 110.993 79.118 111.285C81.1953 112.052 83.226 112.948 85.1953 113.969C85.9146 114.331 86.6501 114.637 88.4779 115.471C85.8588 111.122 83.8306 107.795 81.8452 104.384C75.2158 93.2658 68.4946 82.1871 61.9933 71.0056C59.9056 67.2479 58.0499 63.3982 56.4359 59.477C55.6874 57.6694 55.2258 55.7925 55.0667 53.9095C54.6493 49.675 57.2051 46.9365 61.7573 47.4443C65.4338 48.0013 69.0704 48.9395 72.5978 50.2409C75.4613 51.1907 78.1915 52.5965 82.1201 54.2957C80.9915 51.3793 80.3353 49.4585 79.4892 47.581C74.1082 35.4152 67.1927 23.8865 59.8511 12.5597C58.082 9.7694 56.2937 6.96942 54.6379 4.09731C54.1532 3.02223 53.7846 1.91379 53.5378 0.789597L54.4166 0.452492Z" fill="url(#paint1_linear_74_2)"/>
</g>
<defs>
<linearGradient id="paint0_linear_74_2" x1="23.4275" y1="172.287" x2="134.491" y2="241.336" gradientUnits="userSpaceOnUse">
<stop stop-color="#FF1E1E"/>
<stop offset="1" stop-color="#FF9900"/>
</linearGradient>
<linearGradient id="paint1_linear_74_2" x1="116.099" y1="83.6121" x2="32.9227" y2="41.7597" gradientUnits="userSpaceOnUse">
<stop stop-color="#FF1E1E"/>
<stop offset="1" stop-color="#FF9900"/>
</linearGradient>
<clipPath id="clip0_74_2">
<rect width="93.1091" height="93.1091" fill="white" transform="translate(137.024 42.0185) rotate(116.71)"/>
</clipPath>
</defs>
</svg>
