<svg width="259" height="190" viewBox="0 0 259 190" fill="none" xmlns="http://www.w3.org/2000/svg">
<path d="M18.0108 129.937L17.6704 132.627L10.7416 131.751L10.2023 136.013L15.512 136.684L15.1776 139.327L9.86792 138.655L8.97913 145.679L5.64571 145.258L7.74866 128.638L18.0108 129.937ZM23.015 136.134C23.532 135.49 24.1568 135.012 24.8896 134.702C25.6383 134.393 26.457 134.295 27.3459 134.408L26.9031 137.908L26.0221 137.797C24.9744 137.664 24.1496 137.81 23.5477 138.233C22.9616 138.659 22.5912 139.483 22.4366 140.705L21.605 147.277L18.2716 146.855L19.9407 133.664L23.2741 134.086L23.015 136.134ZM33.7281 149.029C32.4583 148.868 31.3505 148.446 30.4049 147.762C29.4613 147.062 28.7612 146.159 28.3044 145.052C27.8635 143.948 27.7284 142.722 27.8992 141.372C28.0699 140.023 28.5142 138.87 29.2321 137.912C29.9658 136.957 30.8837 136.267 31.9858 135.842C33.0899 135.401 34.2768 135.261 35.5467 135.421C36.8166 135.582 37.9313 136.013 38.8907 136.715C39.8522 137.402 40.5613 138.298 41.0181 139.404C41.4907 140.512 41.6417 141.741 41.4709 143.09C41.3002 144.439 40.84 145.59 40.0904 146.544C39.3567 147.499 38.4298 148.196 37.3099 148.635C36.2078 149.06 35.0139 149.191 33.7281 149.029ZM34.0957 146.124C34.6989 146.2 35.2805 146.129 35.8405 145.909C36.4183 145.676 36.9031 145.286 37.2949 144.739C37.6867 144.191 37.9358 143.497 38.0423 142.656C38.201 141.402 37.9891 140.399 37.4068 139.648C36.8424 138.883 36.0839 138.441 35.1315 138.32C34.1791 138.2 33.3343 138.44 32.5972 139.04C31.8779 139.626 31.4389 140.546 31.2802 141.8C31.1215 143.054 31.3085 144.062 31.8412 144.823C32.3918 145.57 33.1433 146.003 34.0957 146.124ZM52.0845 137.538C53.656 137.737 54.8626 138.398 55.7043 139.52C56.5481 140.627 56.8575 142.069 56.6325 143.847L55.6533 151.585L52.3199 151.164L53.2418 143.878C53.3744 142.83 53.2139 141.995 52.7604 141.373C52.3089 140.736 51.6307 140.36 50.726 140.245C49.8053 140.129 49.039 140.322 48.427 140.825C47.8328 141.314 47.4695 142.083 47.3369 143.131L46.415 150.416L43.0816 149.995L44.7507 136.804L48.0841 137.226L47.8762 138.868C48.393 138.353 49.0127 137.98 49.7355 137.749C50.4761 137.504 51.2591 137.434 52.0845 137.538ZM64.0269 142.025L63.2195 148.406C63.1633 148.851 63.2253 149.189 63.4055 149.421C63.6036 149.64 63.9567 149.781 64.4646 149.846L66.0123 150.042L65.6568 152.851L63.5615 152.586C60.7519 152.231 59.5198 150.688 59.8653 147.957L60.6697 141.6L59.0982 141.401L59.4447 138.663L61.0162 138.862L61.4289 135.6L64.7862 136.025L64.3734 139.287L67.3259 139.66L66.9794 142.399L64.0269 142.025ZM73.1503 139.647L72.623 143.814L78.2184 144.522L77.884 147.165L72.2886 146.457L71.7312 150.862L78.0409 151.66L77.6974 154.375L68.0543 153.155L70.1603 136.511L79.8034 137.731L79.4599 140.446L73.1503 139.647ZM89.7296 142.302C91.3011 142.501 92.5077 143.161 93.3495 144.284C94.1932 145.39 94.5026 146.833 94.2776 148.611L93.2985 156.349L89.9651 155.927L90.887 148.641C91.0195 147.593 90.8591 146.759 90.4055 146.137C89.954 145.499 89.2759 145.123 88.3711 145.009C87.4504 144.892 86.6841 145.085 86.0721 145.589C85.478 146.078 85.1146 146.846 84.9821 147.894L84.0601 155.18L80.7267 154.758L82.3958 141.567L85.7292 141.989L85.5214 143.632C86.0381 143.117 86.6579 142.744 87.3806 142.512C88.1212 142.268 88.9042 142.197 89.7296 142.302ZM96.4518 149.998C96.6205 148.665 97.0321 147.516 97.6864 146.55C98.3567 145.587 99.1873 144.885 100.178 144.446C101.169 144.007 102.228 143.859 103.355 144.002C104.212 144.11 105.006 144.404 105.735 144.883C106.467 145.347 107.024 145.917 107.406 146.595L108.198 140.333L111.579 140.76L109.35 158.38L105.969 157.952L106.216 156C105.721 156.598 105.075 157.049 104.279 157.351C103.482 157.654 102.592 157.743 101.608 157.618C100.497 157.477 99.5172 157.063 98.6688 156.375C97.8205 155.687 97.1917 154.793 96.7826 153.693C96.3913 152.579 96.2811 151.348 96.4518 149.998ZM106.827 151.36C106.929 150.55 106.858 149.84 106.613 149.228C106.37 148.6 105.997 148.102 105.496 147.732C104.996 147.346 104.437 147.114 103.818 147.036C103.199 146.957 102.608 147.036 102.046 147.271C101.484 147.506 101 147.897 100.592 148.442C100.202 148.973 99.9571 149.636 99.8566 150.429C99.7562 151.223 99.8266 151.941 100.068 152.585C100.327 153.214 100.698 153.721 101.182 154.105C101.681 154.49 102.233 154.721 102.836 154.798C103.455 154.876 104.053 154.799 104.631 154.565C105.211 154.316 105.696 153.926 106.086 153.395C106.477 152.848 106.725 152.169 106.827 151.36ZM126.191 143.625C127.938 143.846 129.426 144.381 130.657 145.231C131.904 146.082 132.805 147.188 133.358 148.548C133.93 149.894 134.11 151.401 133.899 153.068C133.688 154.734 133.138 156.149 132.249 157.31C131.379 158.458 130.233 159.289 128.813 159.802C127.41 160.318 125.835 160.466 124.089 160.245L118.279 159.51L120.382 142.89L126.191 143.625ZM124.328 157.396C126.074 157.617 127.484 157.312 128.556 156.48C129.629 155.648 130.275 154.367 130.494 152.637C130.713 150.907 130.408 149.497 129.578 148.408C128.75 147.304 127.463 146.641 125.717 146.42L123.36 146.122L121.971 157.098L124.328 157.396ZM148.479 156.34C148.419 156.816 148.333 157.241 148.221 157.613L138.578 156.393C138.537 157.356 138.776 158.144 139.295 158.758C139.814 159.372 140.502 159.733 141.359 159.842C142.597 159.998 143.545 159.578 144.204 158.581L147.799 159.036C147.257 160.257 146.395 161.213 145.211 161.902C144.029 162.574 142.652 162.812 141.081 162.613C139.811 162.452 138.703 162.03 137.758 161.345C136.83 160.648 136.146 159.746 135.705 158.642C135.28 157.54 135.153 156.315 135.323 154.965C135.496 153.6 135.925 152.437 136.612 151.476C137.298 150.514 138.176 149.819 139.246 149.39C140.317 148.961 141.503 148.829 142.804 148.993C144.058 149.152 145.143 149.563 146.059 150.228C146.991 150.894 147.663 151.761 148.076 152.829C148.507 153.884 148.642 155.054 148.479 156.34ZM145.147 154.951C145.239 154.091 145.016 153.37 144.477 152.785C143.94 152.185 143.235 151.83 142.362 151.719C141.537 151.615 140.806 151.781 140.171 152.216C139.553 152.638 139.124 153.285 138.885 154.158L145.147 154.951ZM155.93 161.153L160.544 151.456L164.092 151.905L157.541 164.478L153.494 163.966L150.306 150.16L153.877 150.612L155.93 161.153ZM177.428 160.003C177.367 160.479 177.281 160.904 177.17 161.277L167.527 160.056C167.485 161.019 167.724 161.807 168.243 162.421C168.762 163.035 169.451 163.396 170.308 163.505C171.546 163.661 172.494 163.241 173.153 162.244L176.748 162.699C176.206 163.92 175.343 164.876 174.16 165.565C172.978 166.238 171.601 166.475 170.03 166.276C168.76 166.115 167.652 165.693 166.706 165.009C165.779 164.311 165.094 163.41 164.654 162.305C164.229 161.203 164.101 159.978 164.272 158.628C164.445 157.263 164.874 156.1 165.56 155.139C166.247 154.177 167.125 153.482 168.195 153.053C169.265 152.624 170.451 152.492 171.753 152.656C173.007 152.815 174.092 153.226 175.008 153.891C175.94 154.557 176.612 155.424 177.025 156.493C177.456 157.547 177.59 158.717 177.428 160.003ZM174.096 158.614C174.188 157.754 173.965 157.033 173.426 156.448C172.889 155.848 172.184 155.493 171.311 155.382C170.486 155.278 169.755 155.444 169.12 155.879C168.502 156.301 168.073 156.948 167.834 157.821L174.096 158.614ZM184.553 149.994L182.323 167.614L178.99 167.192L181.22 149.572L184.553 149.994ZM191.447 168.986C190.177 168.825 189.069 168.403 188.124 167.719C187.18 167.019 186.48 166.116 186.023 165.009C185.582 163.905 185.447 162.679 185.618 161.329C185.789 159.98 186.233 158.827 186.951 157.869C187.685 156.914 188.603 156.224 189.705 155.799C190.809 155.358 191.996 155.218 193.266 155.378C194.536 155.539 195.65 155.97 196.61 156.672C197.571 157.359 198.28 158.255 198.737 159.361C199.21 160.469 199.361 161.698 199.19 163.047C199.019 164.396 198.559 165.547 197.809 166.501C197.076 167.456 196.149 168.153 195.029 168.592C193.927 169.017 192.733 169.148 191.447 168.986ZM191.815 166.081C192.418 166.157 192.999 166.086 193.559 165.866C194.137 165.633 194.622 165.243 195.014 164.696C195.406 164.148 195.655 163.454 195.761 162.613C195.92 161.359 195.708 160.356 195.126 159.605C194.561 158.84 193.803 158.398 192.85 158.277C191.898 158.157 191.053 158.397 190.316 158.997C189.597 159.583 189.158 160.503 188.999 161.757C188.84 163.011 189.027 164.019 189.56 164.78C190.111 165.527 190.862 165.96 191.815 166.081ZM205.562 159.087C206.067 158.538 206.718 158.113 207.514 157.81C208.328 157.494 209.219 157.397 210.187 157.52C211.314 157.662 212.295 158.069 213.13 158.739C213.98 159.411 214.602 160.296 214.995 161.394C215.406 162.478 215.526 163.695 215.356 165.044C215.185 166.393 214.764 167.558 214.091 168.537C213.437 169.502 212.613 170.213 211.62 170.668C210.643 171.124 209.591 171.282 208.464 171.139C207.496 171.017 206.664 170.71 205.968 170.218C205.288 169.729 204.756 169.154 204.372 168.492L203.339 176.659L200.005 176.237L202.47 156.761L205.803 157.183L205.562 159.087ZM211.951 164.613C212.051 163.819 211.971 163.116 211.71 162.502C211.467 161.875 211.094 161.376 210.593 161.006C210.107 160.638 209.555 160.415 208.936 160.337C208.333 160.26 207.741 160.347 207.161 160.596C206.599 160.831 206.114 161.222 205.707 161.767C205.315 162.314 205.069 162.984 204.968 163.778C204.868 164.572 204.939 165.282 205.183 165.91C205.442 166.539 205.813 167.046 206.297 167.43C206.798 167.8 207.35 168.023 207.954 168.099C208.573 168.177 209.164 168.091 209.728 167.84C210.308 167.59 210.794 167.192 211.186 166.645C211.593 166.1 211.848 165.423 211.951 164.613ZM230.07 166.664C230.01 167.14 229.924 167.565 229.812 167.938L220.169 166.717C220.128 167.68 220.367 168.468 220.886 169.082C221.405 169.696 222.093 170.057 222.95 170.166C224.189 170.323 225.137 169.902 225.795 168.905L229.391 169.36C228.849 170.582 227.986 171.537 226.802 172.226C225.621 172.899 224.244 173.136 222.672 172.937C221.403 172.776 220.295 172.354 219.349 171.67C218.421 170.972 217.737 170.071 217.296 168.967C216.871 167.865 216.744 166.639 216.915 165.29C217.088 163.925 217.517 162.761 218.203 161.8C218.889 160.838 219.768 160.143 220.838 159.714C221.908 159.285 223.094 159.153 224.396 159.318C225.65 159.476 226.735 159.888 227.651 160.552C228.582 161.218 229.255 162.085 229.668 163.154C230.099 164.208 230.233 165.378 230.07 166.664ZM226.738 165.275C226.831 164.416 226.608 163.694 226.069 163.11C225.532 162.509 224.827 162.154 223.954 162.044C223.129 161.939 222.398 162.105 221.762 162.54C221.144 162.962 220.716 163.61 220.476 164.482L226.738 165.275ZM236.376 163.132C236.893 162.487 237.518 162.01 238.251 161.7C238.999 161.391 239.818 161.293 240.707 161.406L240.264 164.906L239.383 164.794C238.336 164.662 237.511 164.807 236.909 165.231C236.323 165.657 235.952 166.481 235.798 167.703L234.966 174.275L231.633 173.853L233.302 160.662L236.635 161.084L236.376 163.132Z" fill="url(#paint0_linear_74_3)"/>
<g clip-path="url(#clip0_74_3)">
<path d="M234.065 47.375C234.817 38.8639 228.847 33.0418 233.492 23.2503C234.303 24.4072 235.019 25.6825 235.631 27.0594C239.771 40.2063 243.969 53.5296 247.954 66.9042C248.598 69.0846 249.027 72.6152 248.135 74.4562C246.512 77.8718 244.084 76.5929 241.997 75.3332C235.518 71.3808 228.984 67.5374 222.423 63.6268C225.536 58.5304 225.536 58.5304 237.399 62.7283C226.32 37.1183 201.024 34.8702 183.326 58.1882C184.895 60.1183 186.5 61.9554 187.978 63.9657C192.42 69.4744 194.855 77.4309 194.781 86.2C194.641 92.9664 192.811 98.8097 188.177 102.697C183.543 106.585 179.19 105.201 175.411 101.739C167.177 94.3714 165.34 81.5607 170.526 67.8567C171.15 66.1762 171.615 64.377 172.351 62.0327C159.881 57.6521 147.417 58.428 134.933 66.8715C115.556 80.0338 113.867 103.893 118.441 121.1C118.99 123.258 119.875 125.149 121.065 128.391C116.935 126.795 115.535 123.22 114.199 119.741C108.914 106.001 111.683 85.419 120.552 72.131C126.057 63.8018 133.162 57.7352 140.793 54.8477C152.05 50.1678 163.576 49.8153 173.997 53.8324C175.055 54.2426 176.118 54.5727 177.537 55.0469C186.151 44.8856 195.331 36.3179 206.626 34.7406C217.666 33.2049 225.519 40.9089 234.065 47.375ZM178.323 65.3181C170.845 77.6534 171.108 90.3395 178.805 96.0585C180.837 97.4731 183.315 97.6903 185.735 96.6661C188.739 95.1165 189.352 90.8961 189.19 86.9614C188.774 76.7158 184.809 70.1652 178.323 65.3181Z" fill="url(#paint1_linear_74_3)"/>
</g>
<defs>
<linearGradient id="paint0_linear_74_3" x1="41.4798" y1="113.001" x2="81.1232" y2="237.625" gradientUnits="userSpaceOnUse">
<stop stop-color="#FF1E1E"/>
<stop offset="1" stop-color="#FF9900"/>
</linearGradient>
<linearGradient id="paint1_linear_74_3" x1="244.243" y1="91.4975" x2="119.593" y2="62.3163" gradientUnits="userSpaceOnUse">
<stop stop-color="#FF1E1E"/>
<stop offset="1" stop-color="#FF9900"/>
</linearGradient>
<clipPath id="clip0_74_3">
<rect width="128" height="128" fill="white" transform="translate(258.807 29.1765) rotate(103.176)"/>
</clipPath>
</defs>
</svg>
