<svg width="64" height="64" viewBox="0 0 64 64" fill="none" xmlns="http://www.w3.org/2000/svg">
<g clip-path="url(#clip0_20_107)">
<path d="M0 2L5.0275 58.4415L27.5865 64.7315L50.2085 58.4185L55.24 2H0ZM44.7955 14.931L43.122 33.7335L43.127 33.835L43.12 34.0685V34.0665L41.931 47.2135L41.8 48.3815L27.62 52.3035V52.304L27.609 52.3135L13.4535 48.3695L12.495 37.5H19.4365L19.929 43.027L27.622 45.112L27.62 45.116V45.115L35.3415 43.0005L36.1575 34H20.016L19.8775 32.4785L19.562 28.914L19.3965 27H36.771L37.403 20H10.94L10.8015 18.4795L10.4865 14.914L10.3205 13H44.961L44.7955 14.931Z" fill="url(#paint0_linear_20_107)"/>
</g>
<defs>
<linearGradient id="paint0_linear_20_107" x1="27.62" y1="2" x2="27.62" y2="64.7315" gradientUnits="userSpaceOnUse">
<stop stop-color="#FF1E1E"/>
<stop offset="1" stop-color="#FF9900"/>
</linearGradient>
<clipPath id="clip0_20_107">
<rect width="64" height="64" fill="white"/>
</clipPath>
</defs>
</svg>
