<svg width="64" height="64" viewBox="0 0 64 64" fill="none" xmlns="http://www.w3.org/2000/svg">
<path d="M19.2 44.8C19.2 43.1027 19.8743 41.4748 21.0745 40.2746C22.2747 39.0743 23.9026 38.4 25.6 38.4H32V44.8C32 46.4974 31.3257 48.1253 30.1255 49.3255C28.9253 50.5258 27.2974 51.2001 25.6 51.2001C23.9026 51.2001 22.2747 50.5258 21.0745 49.3255C19.8743 48.1253 19.2 46.4974 19.2 44.8ZM25.6 38.4H32V25.6H25.6C23.9026 25.6 22.2747 26.2743 21.0745 27.4746C19.8743 28.6748 19.2 30.3027 19.2 32C19.2 33.6974 19.8743 35.3253 21.0745 36.5255C22.2747 37.7258 23.9026 38.4 25.6 38.4ZM25.6 25.6H32V12.8H25.6C23.9026 12.8 22.2747 13.4743 21.0745 14.6746C19.8743 15.8748 19.2 17.5027 19.2 19.2C19.2 20.8974 19.8743 22.5253 21.0745 23.7255C22.2747 24.9258 23.9026 25.6 25.6 25.6ZM32 25.6H38.4C40.0974 25.6 41.7253 24.9258 42.9255 23.7255C44.1257 22.5253 44.8 20.8974 44.8 19.2C44.8 17.5027 44.1257 15.8748 42.9255 14.6746C41.7253 13.4743 40.0974 12.8 38.4 12.8H32V25.6ZM38.4 25.6C37.1342 25.6 35.8968 25.9754 34.8444 26.6786C33.7919 27.3819 32.9716 28.3814 32.4872 29.5509C32.0028 30.7203 31.876 32.0071 32.123 33.2486C32.3699 34.4901 32.9795 35.6305 33.8745 36.5255C34.7696 37.4206 35.9099 38.0301 37.1514 38.2771C38.3929 38.524 39.6797 38.3973 40.8492 37.9129C42.0186 37.4285 43.0182 36.6082 43.7214 35.5557C44.4246 34.5032 44.8 33.2659 44.8 32C44.8 30.3027 44.1257 28.6748 42.9255 27.4746C41.7253 26.2743 40.0974 25.6 38.4 25.6Z" fill="url(#paint0_linear_20_105)"/>
<defs>
<linearGradient id="paint0_linear_20_105" x1="32" y1="12.8" x2="32" y2="51.2001" gradientUnits="userSpaceOnUse">
<stop stop-color="#FF1E1E"/>
<stop offset="1" stop-color="#FF9900"/>
</linearGradient>
</defs>
</svg>
