<svg width="54" height="16" viewBox="0 0 54 16" fill="none" xmlns="http://www.w3.org/2000/svg">
<g clip-path="url(#clip0_79_246)">
<path d="M51.1489 7.83847H49.2687C48.0583 7.83847 47.4098 8.73891 47.4098 10.2395V15.6639H43.8439V7.83793H42.3306C41.1202 7.83793 40.4723 8.73837 40.4723 10.2389V15.6633H36.9058V4.94402H40.4723V6.57351C41.0562 5.30854 41.8558 4.94402 43.0448 4.94402H47.4104V6.57351C47.9942 5.30854 48.7938 4.94402 49.9828 4.94402H51.1494V7.83847H51.1489ZM36.1276 11.1399H28.6928C28.8872 12.3407 29.6435 13.0267 30.9185 13.0267C31.8693 13.0267 32.5397 12.6404 32.756 11.9549L35.9112 12.8336C35.1335 14.6987 33.2095 15.8352 30.9185 15.8352C27.0497 15.8352 25.2774 12.8548 25.2774 10.3042C25.2774 7.79604 26.8334 4.7944 30.7022 4.7944C34.8087 4.7944 36.1703 7.83848 36.1703 10.0898C36.173 10.4403 36.1587 10.7908 36.1276 11.1399ZM32.6695 9.06046C32.5829 8.13826 31.9126 7.28135 30.7028 7.28135C29.5784 7.28135 28.9091 7.77373 28.6928 9.06046H32.6695ZM19.0535 15.6633H22.1868L26.0989 4.9451H22.5116L20.6095 11.1829L18.6641 4.94456H15.0976L19.0535 15.6633ZM4.44298 15.6633H7.98759V7.83847H11.3602V15.6639H14.8829V4.94456H7.98759V4.28025C7.98759 3.55119 8.50624 3.10125 9.32777 3.10125H11.3597V0.206787H8.74449C6.17202 0.206787 4.44298 1.77208 4.44298 4.06534V4.94456H2.43298V7.83902H4.44298V15.6633Z" fill="white"/>
<path d="M51.2938 15.7781C52.5113 15.7781 53.4983 14.7988 53.4983 13.5909C53.4983 12.3831 52.5113 11.4043 51.2938 11.4043C50.0763 11.4043 49.0889 12.3836 49.0889 13.5915C49.0889 14.7993 50.0763 15.7781 51.2938 15.7781Z" fill="#1DBF73"/>
</g>
<defs>
<clipPath id="clip0_79_246">
<rect width="53.1407" height="15.9215" fill="white" transform="translate(0.365234)"/>
</clipPath>
</defs>
</svg>
