<svg width="48" height="48" viewBox="0 0 48 48" fill="none" xmlns="http://www.w3.org/2000/svg">
<path d="M31.5 42V28.5H35.5195L36.2197 22.5H31.5V19.1572C31.5 17.584 31.4004 16.5117 33.6592 16.5117H36V11.6514C35.25 11.584 34.1338 11.4375 32.1475 11.4375C27.999 11.4375 25.5 13.9687 25.5 18.6182V22.5H20.25V28.5H25.5V42H31.5Z" fill="url(#paint0_linear_6_14)"/>
<path d="M37.5 42.75H10.5C7.60547 42.75 5.25 40.3945 5.25 37.5V10.5C5.25 7.60547 7.60547 5.25 10.5 5.25H37.5C40.3945 5.25 42.75 7.60547 42.75 10.5V37.5C42.75 40.3945 40.3945 42.75 37.5 42.75ZM10.5 6.75C8.43164 6.75 6.75 8.43164 6.75 10.5V37.5C6.75 39.5684 8.43164 41.25 10.5 41.25H37.5C39.5684 41.25 41.25 39.5684 41.25 37.5V10.5C41.25 8.43164 39.5684 6.75 37.5 6.75H10.5Z" fill="url(#paint1_linear_6_14)"/>
<defs>
<linearGradient id="paint0_linear_6_14" x1="28.2345" y1="10.875" x2="28.2345" y2="42.6585" gradientUnits="userSpaceOnUse">
<stop stop-color="#FF1E1E"/>
<stop offset="1" stop-color="#FF9900"/>
</linearGradient>
<linearGradient id="paint1_linear_6_14" x1="24" y1="5.12475" x2="24" y2="43.5127" gradientUnits="userSpaceOnUse">
<stop stop-color="#FA5252"/>
<stop offset="1" stop-color="#FF9900"/>
</linearGradient>
</defs>
</svg>
