<svg width="48" height="48" viewBox="0 0 48 48" fill="none" xmlns="http://www.w3.org/2000/svg">
<path fill-rule="evenodd" clip-rule="evenodd" d="M16.5 36V19.5H12V36H16.5Z" fill="url(#paint0_linear_6_22)"/>
<path fill-rule="evenodd" clip-rule="evenodd" d="M14.5195 17.25C16.4033 17.25 17.5752 16.1455 17.5752 14.584C17.54 12.9902 16.4033 11.8477 14.5547 11.8477C12.7061 11.8477 11.4961 12.9551 11.4961 14.5488C11.4961 16.1074 12.6709 17.25 14.4844 17.25H14.5195Z" fill="url(#paint1_linear_6_22)"/>
<path fill-rule="evenodd" clip-rule="evenodd" d="M20.209 36H25.5V26.9326C25.5 26.4463 25.5908 25.9629 25.7344 25.6143C26.124 24.6445 27.1436 23.6396 28.6348 23.6396C30.5889 23.6396 31.5 25.1309 31.5 27.3135V36H36V26.6924C36 21.6973 33.6855 19.5674 30.1318 19.5674C27.2168 19.5674 26.2881 21 25.5762 22.5H25.5V19.5H20.209C20.2793 21 20.0771 36 20.0771 36H20.209Z" fill="url(#paint2_linear_6_22)"/>
<path d="M37.5 42.75H10.5C7.60547 42.75 5.25 40.3945 5.25 37.5V10.5C5.25 7.60547 7.60547 5.25 10.5 5.25H37.5C40.3945 5.25 42.75 7.60547 42.75 10.5V37.5C42.75 40.3945 40.3945 42.75 37.5 42.75ZM10.5 6.75C8.43164 6.75 6.75 8.43164 6.75 10.5V37.5C6.75 39.5684 8.43164 41.25 10.5 41.25H37.5C39.5684 41.25 41.25 39.5684 41.25 37.5V10.5C41.25 8.43164 39.5684 6.75 37.5 6.75H10.5Z" fill="url(#paint3_linear_6_22)"/>
<defs>
<linearGradient id="paint0_linear_6_22" x1="14.25" y1="18.6435" x2="14.25" y2="36.7808" gradientUnits="userSpaceOnUse">
<stop stop-color="#FA5252"/>
<stop offset="1" stop-color="#FF9900"/>
</linearGradient>
<linearGradient id="paint1_linear_6_22" x1="14.5365" y1="11.5673" x2="14.5365" y2="17.5057" gradientUnits="userSpaceOnUse">
<stop stop-color="#FA5252"/>
<stop offset="1" stop-color="#FF9900"/>
</linearGradient>
<linearGradient id="paint2_linear_6_22" x1="28.0395" y1="10.5938" x2="28.0395" y2="37.1438" gradientUnits="userSpaceOnUse">
<stop stop-color="#FA5252"/>
<stop offset="1" stop-color="#FF9900"/>
</linearGradient>
<linearGradient id="paint3_linear_6_22" x1="24" y1="4.875" x2="24" y2="43.125" gradientUnits="userSpaceOnUse">
<stop stop-color="#FA5252"/>
<stop offset="1" stop-color="#FF9900"/>
</linearGradient>
</defs>
</svg>
