<svg width="64" height="64" viewBox="0 0 64 64" fill="none" xmlns="http://www.w3.org/2000/svg">
<path d="M9.06665 9.06665V54.9333H54.9333V9.06665H9.06665ZM34.04 43.4533C34.04 49.0933 31.3067 50.9733 27.2533 50.9733C26.194 50.9719 25.1414 50.8054 24.1333 50.48L24.5867 47.4667C25.3246 47.7195 26.1 47.8457 26.88 47.84C29.0133 47.84 30.3067 46.88 30.3067 43.3333V30.2133H34.04V43.4533ZM42.7333 50.9467C40.8131 50.9502 38.9201 50.493 37.2133 49.6133L38.04 46.52C39.5471 47.3699 41.2433 47.8284 42.9733 47.8533C45.3333 47.8667 46.6667 46.7467 46.6667 45.08C46.6667 43.4133 45.6533 42.6667 43.0667 41.6933C39.6933 40.4933 37.5467 38.68 37.5467 35.76C37.5467 32.4133 40.3333 29.8933 44.7733 29.8933C46.4614 29.8419 48.1378 30.1891 49.6667 30.9067L48.7733 33.9067C47.5099 33.2642 46.1106 32.9349 44.6933 32.9467C42.32 32.9467 41.32 34.2 41.32 35.4C41.32 36.9733 42.5066 37.7066 45.2267 38.7466C48.7733 40.08 50.48 41.88 50.48 44.8133C50.48 48.1067 48 50.9467 42.7333 50.9467Z" fill="url(#paint0_linear_20_89)"/>
<defs>
<linearGradient id="paint0_linear_20_89" x1="32" y1="9.06665" x2="32" y2="54.9333" gradientUnits="userSpaceOnUse">
<stop stop-color="#FF1E1E"/>
<stop offset="1" stop-color="#FF9900"/>
</linearGradient>
</defs>
</svg>
