<svg width="53" height="13" viewBox="0 0 53 13" fill="none" xmlns="http://www.w3.org/2000/svg">
<g clip-path="url(#clip0_79_252)">
<path d="M51.7156 10.1956C51.8548 10.1606 51.9244 10.0905 51.9244 9.95033C51.9244 9.77515 51.82 9.70508 51.6111 9.70508H51.2631V10.581H51.4023V10.1956H51.5415L51.7852 10.581H51.9244L51.7156 10.1956ZM51.5763 10.0905H51.4371V9.81019H51.6111C51.7156 9.81019 51.82 9.81019 51.82 9.95033C51.82 10.0905 51.7155 10.0905 51.5763 10.0905Z" fill="black"/>
<path d="M51.6112 9.31973C51.1587 9.31973 50.7758 9.6701 50.7758 10.1606C50.7758 10.6161 51.1239 11.0015 51.6112 11.0015C52.0636 11.0015 52.4465 10.6511 52.4465 10.1606C52.4117 9.6701 52.0636 9.31973 51.6112 9.31973ZM51.6112 10.8613C51.2283 10.8613 50.915 10.546 50.915 10.1256C50.915 9.70513 51.2283 9.3898 51.6112 9.3898C51.994 9.3898 52.3073 9.70513 52.3073 10.1256C52.3073 10.546 51.994 10.8613 51.6112 10.8613ZM0.793213 1.85694H2.74239V8.96936H6.29269V10.7562H0.793213V1.85694ZM7.16286 4.72994H9.00762V10.7562H7.16286V4.72994ZM8.10264 1.7168C8.69436 1.7168 9.18165 2.20731 9.18165 2.80293C9.18165 3.39855 8.69436 3.88906 8.10264 3.88906C7.51093 3.88906 7.02363 3.39855 7.02363 2.80293C7.02363 2.20731 7.47612 1.7168 8.10264 1.7168ZM16.7695 1.85694H18.6491V7.1825L20.7375 4.72994H23.0348L20.5983 7.49783L22.9652 10.7562H20.6331L18.6491 7.77812V10.7562H16.7695V1.85694ZM10.0518 4.72994H11.827V5.53578H11.8618C12.1054 5.04527 12.7319 4.55476 13.6369 4.55476C15.5165 4.55476 15.8646 5.81607 15.8646 7.42776V10.7212H14.0198V7.77812C14.0198 7.07739 14.0198 6.16644 13.0452 6.16644C12.0706 6.16644 11.9314 6.93724 11.9314 7.70805V10.6862H10.0866V4.72994H10.0518Z" fill="white"/>
<path d="M26.9331 7.04234C26.9331 6.41169 26.4458 5.88614 25.7845 5.88614C24.9839 5.88614 24.5314 6.44672 24.4618 7.04234H26.9331ZM28.4994 9.70512C27.9077 10.4759 26.9331 10.8964 25.9585 10.8964C24.1138 10.8964 22.6171 9.63505 22.6171 7.70804C22.6171 5.78103 24.1138 4.51971 25.9585 4.51971C27.6989 4.51971 28.7779 5.78103 28.7779 7.70804V8.30366H24.4618C24.6011 9.00439 25.158 9.45987 25.8541 9.45987C26.4458 9.45987 26.8635 9.14454 27.1768 8.7241L28.4994 9.70512ZM32.6414 6.16643C31.7016 6.16643 31.1447 6.79709 31.1447 7.70804C31.1447 8.61899 31.7016 9.24965 32.6414 9.24965C33.5812 9.24965 34.1381 8.61899 34.1381 7.70804C34.1381 6.79709 33.5812 6.16643 32.6414 6.16643ZM35.8437 10.7562H34.1381V9.95038H34.1033C33.8249 10.3708 33.0939 10.8964 32.2586 10.8964C30.4834 10.8964 29.3 9.60001 29.3 7.77811C29.3 6.09636 30.3442 4.55475 32.0497 4.55475C32.8155 4.55475 33.5464 4.76497 33.9641 5.36059H33.9989V1.85693H35.8437V10.7562Z" fill="white"/>
<path d="M49.3138 0H38.6281C38.106 0 37.6884 0.420439 37.6884 0.91095V11.7022C37.6884 12.1927 38.106 12.6132 38.6281 12.6132H49.3138C49.8359 12.6132 50.2536 12.1927 50.2536 11.7022V0.91095C50.2536 0.420439 49.8359 0 49.3138 0Z" fill="#006192"/>
<path d="M39.5679 4.72982H41.4127V10.7561H39.5679V4.72982ZM40.5077 1.75171C41.0994 1.75171 41.5867 2.24222 41.5867 2.83784C41.5867 3.43346 41.0994 3.92398 40.5077 3.92398C39.916 3.92398 39.4287 3.43346 39.4287 2.83784C39.4287 2.20718 39.916 1.75171 40.5077 1.75171ZM42.5961 4.72982H44.3713V5.53566H44.4061C44.6497 5.04515 45.2763 4.55463 46.1812 4.55463C48.0608 4.55463 48.4089 5.81595 48.4089 7.42763V10.7211H46.5641V7.778C46.5641 7.07727 46.5641 6.16632 45.5895 6.16632C44.6149 6.16632 44.4757 6.93712 44.4757 7.70792V10.686H42.6309V4.72982H42.5961Z" fill="white"/>
</g>
<defs>
<clipPath id="clip0_79_252">
<rect width="51.6933" height="12.6132" fill="white" transform="translate(0.773193)"/>
</clipPath>
</defs>
</svg>
