<svg width="237" height="73" viewBox="0 0 237 73" fill="none" xmlns="http://www.w3.org/2000/svg">
<path d="M22.32 35.816C24.208 36.168 25.76 37.112 26.976 38.648C28.192 40.184 28.8 41.944 28.8 43.928C28.8 45.72 28.352 47.304 27.456 48.68C26.592 50.024 25.328 51.08 23.664 51.848C22 52.616 20.032 53 17.76 53H3.312V19.496H17.136C19.408 19.496 21.36 19.864 22.992 20.6C24.656 21.336 25.904 22.36 26.736 23.672C27.6 24.984 28.032 26.472 28.032 28.136C28.032 30.088 27.504 31.72 26.448 33.032C25.424 34.344 24.048 35.272 22.32 35.816ZM10.032 33.32H16.176C17.776 33.32 19.008 32.968 19.872 32.264C20.736 31.528 21.168 30.488 21.168 29.144C21.168 27.8 20.736 26.76 19.872 26.024C19.008 25.288 17.776 24.92 16.176 24.92H10.032V33.32ZM16.8 47.528C18.432 47.528 19.696 47.144 20.592 46.376C21.52 45.608 21.984 44.52 21.984 43.112C21.984 41.672 21.504 40.552 20.544 39.752C19.584 38.92 18.288 38.504 16.656 38.504H10.032V47.528H16.8ZM40.8758 19.496V53H34.1558V19.496H40.8758ZM70.3151 19.496V24.92H61.3871V53H54.6671V24.92H45.7391V19.496H70.3151ZM82.0823 47.336H97.1543V53H74.3063V47.816L89.2823 25.16H74.3063V19.496H97.1543V24.68L82.0823 47.336Z" fill="white"/>
<path d="M124 20.496V25.92H110.032V34.512H120.736V39.84H110.032V54H103.312V20.496H124ZM144.317 54.336C141.181 54.336 138.301 53.6 135.677 52.128C133.053 50.656 130.973 48.624 129.437 46.032C127.901 43.408 127.133 40.448 127.133 37.152C127.133 33.888 127.901 30.96 129.437 28.368C130.973 25.744 133.053 23.696 135.677 22.224C138.301 20.752 141.181 20.016 144.317 20.016C147.485 20.016 150.365 20.752 152.957 22.224C155.581 23.696 157.645 25.744 159.149 28.368C160.685 30.96 161.453 33.888 161.453 37.152C161.453 40.448 160.685 43.408 159.149 46.032C157.645 48.624 155.581 50.656 152.957 52.128C150.333 53.6 147.453 54.336 144.317 54.336ZM144.317 48.336C146.333 48.336 148.109 47.888 149.645 46.992C151.181 46.064 152.381 44.752 153.245 43.056C154.109 41.36 154.541 39.392 154.541 37.152C154.541 34.912 154.109 32.96 153.245 31.296C152.381 29.6 151.181 28.304 149.645 27.408C148.109 26.512 146.333 26.064 144.317 26.064C142.301 26.064 140.509 26.512 138.941 27.408C137.405 28.304 136.205 29.6 135.341 31.296C134.477 32.96 134.045 34.912 134.045 37.152C134.045 39.392 134.477 41.36 135.341 43.056C136.205 44.752 137.405 46.064 138.941 46.992C140.509 47.888 142.301 48.336 144.317 48.336ZM173.173 48.672H184.213V54H166.453V20.496H173.173V48.672ZM195.204 20.496V54H188.484V20.496H195.204ZM217.395 54.336C214.259 54.336 211.379 53.6 208.755 52.128C206.131 50.656 204.051 48.624 202.515 46.032C200.979 43.408 200.211 40.448 200.211 37.152C200.211 33.888 200.979 30.96 202.515 28.368C204.051 25.744 206.131 23.696 208.755 22.224C211.379 20.752 214.259 20.016 217.395 20.016C220.563 20.016 223.443 20.752 226.035 22.224C228.659 23.696 230.723 25.744 232.227 28.368C233.763 30.96 234.531 33.888 234.531 37.152C234.531 40.448 233.763 43.408 232.227 46.032C230.723 48.624 228.659 50.656 226.035 52.128C223.411 53.6 220.531 54.336 217.395 54.336ZM217.395 48.336C219.411 48.336 221.187 47.888 222.723 46.992C224.259 46.064 225.459 44.752 226.323 43.056C227.187 41.36 227.619 39.392 227.619 37.152C227.619 34.912 227.187 32.96 226.323 31.296C225.459 29.6 224.259 28.304 222.723 27.408C221.187 26.512 219.411 26.064 217.395 26.064C215.379 26.064 213.587 26.512 212.019 27.408C210.483 28.304 209.283 29.6 208.419 31.296C207.555 32.96 207.123 34.912 207.123 37.152C207.123 39.392 207.555 41.36 208.419 43.056C209.283 44.752 210.483 46.064 212.019 46.992C213.587 47.888 215.379 48.336 217.395 48.336Z" fill="url(#paint0_linear_2_12)"/>
<defs>
<linearGradient id="paint0_linear_2_12" x1="118.5" y1="-15" x2="214" y2="97.5" gradientUnits="userSpaceOnUse">
<stop stop-color="#FF1E1E"/>
<stop offset="1" stop-color="#FF9900"/>
</linearGradient>
</defs>
</svg>
