<svg width="64" height="50" viewBox="0 0 64 50" fill="none" xmlns="http://www.w3.org/2000/svg">
<path d="M17.4186 48.1438C17.0293 48.1438 16.6826 48.1157 16.3893 48.0626V49.5781C16.9919 49.8593 17.4906 49.9999 17.8986 49.9999C19.4266 49.9999 20.8346 48.9063 22.1199 46.7096C23.7626 43.8661 25.0906 39.3009 26.0986 33.0265H23.7519C23.3765 36.679 22.6289 40.2657 21.5253 43.7099C21.5999 43.0568 21.4159 41.91 20.9786 40.2664L19.0399 33.0265H16.6133L19.3173 42.71C19.7253 44.163 19.9306 45.1316 19.9306 45.6066C19.9306 46.2909 19.6693 46.9096 19.1439 47.4626C18.7066 47.9126 18.1333 48.1438 17.4186 48.1438V48.1438Z" fill="white"/>
<path d="M51.952 28.5801V45.5441H58.9654V43.4568H54.312V28.5801H51.952Z" fill="white"/>
<path d="M2.77333 32.0141H2.8L6.53333 45.5441H8.41333L12.1733 32.0141H12.1947C12.6049 36.5095 12.8452 41.0239 12.9147 45.5441H15.3947C15.242 39.8716 14.8612 34.2106 14.2533 28.5801H11.3333L7.74133 41.0477H7.72L4.16 28.5801H1.09333C0.488544 34.21 0.123647 39.8717 0 45.5441H2.25333C2.32533 40.5821 2.49867 36.0731 2.77333 32.0141V32.0141Z" fill="white"/>
<path d="M49.8106 36.7449C49.8106 31.1329 47.896 28.3207 44.064 28.3207C42.1866 28.3207 40.72 29.0331 39.664 30.458C38.5173 32.0172 37.9413 34.3107 37.9413 37.3448C37.9413 40.3258 38.448 42.5162 39.472 43.9099C40.4053 45.1691 41.8106 45.7972 43.6933 45.7972C44.3973 45.7972 45.0426 45.6972 45.6266 45.4972L49.16 47.8657L50.12 45.9597H50.112L47.4026 44.4254C47.6426 44.1911 47.8746 43.9411 48.0826 43.6599C49.2373 42.1038 49.8106 39.7977 49.8106 36.7449V36.7449ZM43.936 43.6974C42.7493 43.6974 41.8826 43.1849 41.328 42.1631L41.3333 42.1475C40.7333 41.0445 40.4346 39.2634 40.4346 36.823C40.4346 32.5484 41.5653 30.4111 43.8213 30.4111C45.0026 30.4111 45.8746 30.9236 46.4266 31.9453C47.024 33.0546 47.3226 34.8169 47.3226 37.2323C47.3226 41.5382 46.192 43.6974 43.936 43.6974ZM35.2 37.2698C35.2 37.2698 33.0826 35.8731 32.0346 35.2138C30.8826 34.4764 30.2586 33.6108 30.2586 32.6078C30.2608 32.299 30.3212 31.9946 30.4355 31.7164C30.5498 31.4382 30.7153 31.193 30.92 30.9986C31.3253 30.5736 31.9093 30.3674 32.664 30.3674C33.5946 30.3674 34.5413 30.6048 35.5013 31.0735L36.0693 29.6143C34.9559 28.7782 33.6583 28.3416 32.336 28.3582C31.0026 28.3582 29.9226 28.7769 29.0826 29.6299C28.248 30.4736 27.8293 31.5766 27.8293 32.9577C27.8293 34.617 28.3893 35.6262 29.5146 36.5699C29.5146 36.5699 31.5813 37.9323 32.616 38.5854C33.7306 39.3072 34.344 40.1665 34.344 41.1789C34.3484 41.5453 34.2781 41.9078 34.139 42.236C33.9999 42.5643 33.7959 42.8489 33.544 43.0662C33.0373 43.5161 32.3413 43.7411 31.456 43.7411C30.504 43.7411 29.4506 43.4099 28.2826 42.735L27.6506 44.1942C29.008 45.2472 30.3973 45.7753 31.8453 45.7753C33.3946 45.7753 34.6186 45.316 35.536 44.3942C36.4533 43.4755 36.912 42.2913 36.912 40.8476L36.928 40.857C36.928 39.204 36.3546 38.2073 35.2 37.2698V37.2698Z" fill="white"/>
<path d="M63.1867 28.2895C62.661 27.4941 62.0362 26.7957 61.3334 26.2178C60.7627 25.771 59.5147 25.1429 59.2801 24.393L59.2454 24.3492C59.6347 24.3086 60.0987 24.1461 60.4721 24.0243C61.0774 23.8399 61.6321 23.8805 62.2587 23.6993C62.5414 23.618 62.8267 23.5149 63.1121 23.4118V23.2275C62.7921 22.8587 62.5521 22.3588 62.2214 22.0151C61.2971 21.0858 60.3128 20.2417 59.2774 19.4903C58.7174 19.0778 58.0081 18.8154 57.4187 18.4654C57.2054 18.3435 56.8481 18.281 56.7254 18.0748C56.4054 17.628 56.2187 17.0312 55.9921 16.4968C55.4801 15.3688 54.9787 14.1189 54.5334 12.9284C54.2134 12.1254 54.0187 11.3254 53.6267 10.588C51.7867 7.10083 49.7947 4.98541 46.7307 2.91997C46.0721 2.49189 45.2827 2.30753 44.4481 2.07943C44.0027 2.05443 43.5574 2.01693 43.1147 1.99506C42.8214 1.85132 42.5387 1.46073 42.2881 1.27325C41.2747 0.535821 38.6507 -1.05778 37.9041 1.0514C37.4241 2.38252 38.6161 3.6949 39.0294 4.36984C39.3361 4.83855 39.7227 5.37599 39.9361 5.90407C40.0614 6.26029 40.0961 6.62588 40.2214 6.99772C40.5041 7.90076 40.7734 8.90379 41.1467 9.75059C41.3414 10.1787 41.5547 10.6318 41.8054 11.0161C41.9494 11.2411 42.1947 11.3442 42.2507 11.7129C42.0001 12.1316 41.9841 12.7378 41.8401 13.2471C41.2001 15.5688 41.4507 18.4404 42.3574 20.1496C42.6427 20.6589 43.3227 21.787 44.2321 21.3558C45.0321 20.987 44.8561 19.8215 45.0854 18.7935C45.1387 18.5466 45.1041 18.3842 45.2134 18.2186V18.2654C45.4641 18.8435 45.7147 19.3903 45.9441 19.9684C46.4934 20.9745 47.4534 22.0182 48.2561 22.715C48.6827 23.0837 49.0214 23.7212 49.5547 23.9493V23.8868H49.5147C49.4001 23.7087 49.2481 23.6243 49.1041 23.4774C48.7662 23.0971 48.4542 22.6865 48.1707 22.2494C47.4203 21.0699 46.7541 19.8199 46.1787 18.5123C45.8854 17.8686 45.6401 17.1749 45.4054 16.5406C45.2987 16.2969 45.2987 15.9281 45.1201 15.8032C44.8534 16.25 44.4614 16.6406 44.2667 17.1936C43.9281 18.0779 43.8934 19.1622 43.7654 20.2934C43.6934 20.3152 43.7281 20.2934 43.6934 20.3371C43.1227 20.1777 42.9281 19.4966 42.7147 18.9247C42.1814 17.4686 42.0934 15.1282 42.5547 13.4471C42.6801 13.019 43.2134 11.6629 43.0001 11.2504C42.8881 10.8599 42.5361 10.638 42.3414 10.3224C42.0917 9.91182 41.8773 9.47326 41.7014 9.01316C41.2747 7.86639 41.0614 6.59463 40.5974 5.44786C40.3841 4.91666 40.0107 4.36047 39.7067 3.87301C39.3681 3.31994 38.9947 2.93247 38.7254 2.27628C38.6374 2.05131 38.5121 1.67946 38.6534 1.43574C38.6907 1.27013 38.7654 1.20451 38.9041 1.16076C39.1387 0.938909 39.7974 1.22951 40.0294 1.35137C40.6881 1.65759 41.2427 1.94507 41.7947 2.37628C42.0454 2.57938 42.3147 2.96685 42.6347 3.06996H43.0081C43.5787 3.2137 44.2214 3.11371 44.7547 3.29494C45.7014 3.64491 46.5547 4.15423 47.3201 4.70731C49.6691 6.42853 51.5874 8.84776 52.8801 11.7192C53.0934 12.191 53.1867 12.6253 53.3814 13.1159C53.7547 14.1283 54.2161 15.1501 54.5947 16.1281C54.9681 17.0937 55.3281 18.0811 55.8641 18.881C56.1307 19.3091 57.2027 19.5341 57.6827 19.759C58.0374 19.9434 58.5894 20.1121 58.9094 20.3371C59.5227 20.7652 60.1201 21.2589 60.6961 21.7307C60.9894 21.9651 61.8774 22.4775 61.9307 22.89C60.5041 22.8462 59.3974 23.0119 58.4721 23.4681C58.2054 23.5899 57.7787 23.5899 57.7414 23.9805C57.8881 24.143 57.9094 24.4086 58.0347 24.6367C58.2481 25.046 58.6161 25.596 58.9574 25.8866C59.3307 26.2241 59.7041 26.549 60.0961 26.8365C60.7894 27.3271 61.5761 27.6177 62.2561 28.1114C62.6427 28.3988 63.0374 28.7644 63.4294 29.0707C63.6241 29.2238 63.7494 29.5019 64.0001 29.5987V29.5394C63.8774 29.355 63.8401 29.0894 63.7201 28.8832C63.5414 28.6769 63.3627 28.4926 63.1867 28.2895V28.2895Z" fill="white"/>
</svg>
