<svg width="45" height="46" viewBox="0 0 45 46" fill="none" xmlns="http://www.w3.org/2000/svg">
<g clip-path="url(#clip0_79_59)">
<mask id="mask0_79_59" style="mask-type:alpha" maskUnits="userSpaceOnUse" x="0" y="0" width="45" height="46">
<path d="M22.5333 45.2857C34.8413 45.2857 44.819 35.308 44.819 22.9999C44.819 10.6919 34.8413 0.714233 22.5333 0.714233C10.2252 0.714233 0.247559 10.6919 0.247559 22.9999C0.247559 35.308 10.2252 45.2857 22.5333 45.2857Z" fill="black"/>
</mask>
<g mask="url(#mask0_79_59)">
<path d="M44.319 22.9999C44.319 35.0319 34.5652 44.7857 22.5333 44.7857C10.5014 44.7857 0.747559 35.0319 0.747559 22.9999C0.747559 10.968 10.5014 1.21423 22.5333 1.21423C34.5652 1.21423 44.319 10.968 44.319 22.9999Z" stroke="url(#paint0_linear_79_59)"/>
<path d="M37.2686 39.7192L17.3685 14.0857H13.619V31.9068H16.6186V17.895L34.914 41.533C35.7396 40.9806 36.526 40.3742 37.2686 39.7192Z" fill="url(#paint1_linear_79_59)"/>
<path d="M31.6952 14.0857H28.7238V31.9143H31.6952V14.0857Z" fill="url(#paint2_linear_79_59)"/>
</g>
</g>
<defs>
<linearGradient id="paint0_linear_79_59" x1="-3.5" y1="-3" x2="26" y2="45" gradientUnits="userSpaceOnUse">
<stop stop-color="#FF1E1E"/>
<stop offset="1" stop-color="#FF9900"/>
</linearGradient>
<linearGradient id="paint1_linear_79_59" x1="9" y1="4.5" x2="27.1654" y2="19.9548" gradientUnits="userSpaceOnUse">
<stop stop-color="#FF1E1E"/>
<stop offset="1" stop-color="#FF9900"/>
</linearGradient>
<linearGradient id="paint2_linear_79_59" x1="30.2095" y1="14.0857" x2="30.1597" y2="27.1784" gradientUnits="userSpaceOnUse">
<stop stop-color="#FF1E1E"/>
<stop offset="1" stop-color="#FF9900"/>
</linearGradient>
<clipPath id="clip0_79_59">
<rect width="44.5714" height="44.5714" fill="white" transform="translate(0.247559 0.714233)"/>
</clipPath>
</defs>
</svg>
