<svg width="64" height="64" viewBox="0 0 64 64" fill="none" xmlns="http://www.w3.org/2000/svg">
<path d="M61.4705 14.181L35.0947 0.628785C33.4313 -0.209595 31.2655 -0.209595 29.5889 0.628785L2.93144 14.181C1.2148 15.0548 0 16.6972 0 18.4539V45.5223C0 47.279 1.2465 48.9219 2.96314 49.8005L10.0061 53.3403C13.3724 54.8075 14.5621 54.8075 16.0939 54.8075C21.0781 54.8075 23.9252 52.1404 23.9252 47.4886V20.7652C23.9252 20.3879 23.7033 19.8263 23.2846 19.8263H19.9213C19.4955 19.8263 18.5421 20.3879 18.5421 20.7647V47.4881C18.5421 49.5501 16.4342 51.6021 12.495 49.8592L5.21749 46.1474C4.96389 46.0257 4.78505 45.7806 4.78505 45.5223V18.4539C4.78505 18.1988 5.11701 17.9426 5.37241 17.8119L31.9438 4.28293C32.192 4.15855 32.5569 4.15855 32.8045 4.28293L59.0517 17.8087C59.3029 17.9426 59.2144 18.1908 59.2144 18.4539V45.5223C59.2144 45.7806 59.3238 46.032 59.0756 46.1564L32.7064 59.6932C32.4803 59.8134 32.1998 59.8134 31.9521 59.6932L25.1891 56.1211C24.9851 56.0163 24.7429 55.9788 24.5473 56.0756C22.6656 57.0193 22.3187 57.1448 20.5536 57.6862C20.1193 57.8201 19.4787 58.0525 20.7988 58.7072L29.6499 63.3405C30.4975 63.7745 31.4605 64 32.4295 64C33.4116 64 34.3734 63.7745 35.2209 63.3405L61.4699 49.8005C63.1865 48.9155 64 47.279 64 45.5223V18.4539C64 16.6972 63.1865 15.0591 61.4705 14.181V14.181ZM40.6191 41.233C33.6054 41.233 32.0604 39.5208 31.5454 36.4346C31.4856 36.1022 31.1668 35.7047 30.7846 35.7047H27.3567C26.9326 35.7047 26.5917 36.1599 26.5917 36.5335C26.5917 40.4852 29.0195 45.273 40.6197 45.273C49.0168 45.273 53.8312 42.3858 53.8312 37.2761C53.8312 32.2099 49.9631 30.8803 41.8195 29.9265C33.588 28.9638 32.7519 28.4774 32.7519 26.771C32.7519 25.3642 33.46 23.4879 39.555 23.4879C45.001 23.4879 47.0083 24.5221 47.8343 27.7703C47.9049 28.0757 48.2201 28.2948 48.576 28.2948H52.0176C52.2294 28.2948 52.4315 28.2191 52.5799 28.0852C52.7234 27.9412 52.7994 27.7607 52.7803 27.567C52.2473 21.9736 48.0478 19.3669 39.5544 19.3669C31.9994 19.3669 27.4925 22.1901 27.4925 26.9224C27.4925 32.0553 31.9767 33.4738 39.229 34.1084C47.9049 34.861 48.5796 35.9831 48.5796 37.4931C48.5796 40.1157 46.2002 41.233 40.6191 41.233Z" fill="white"/>
</svg>
