<svg width="64" height="64" viewBox="0 0 64 64" fill="none" xmlns="http://www.w3.org/2000/svg">
<path d="M49.3333 25.36C47.3335 24.6712 45.5682 23.4327 44.24 21.7866C42.7761 19.9526 40.9122 18.4777 38.7907 17.4747C36.6692 16.4717 34.3464 15.9673 32 16C28.8436 15.7764 25.7189 16.75 23.248 18.7267C20.7771 20.7034 19.1414 23.5382 18.6667 26.6666C19.6018 25.102 21.0092 23.8743 22.6864 23.1603C24.3636 22.4463 26.224 22.2828 28 22.6933C29.9965 23.4021 31.7589 24.6478 33.0933 26.2933C34.5652 28.1127 36.4327 29.5724 38.5538 30.5613C40.6748 31.5502 42.9935 32.0422 45.3333 32C48.4897 32.2235 51.6144 31.25 54.0853 29.2733C56.5562 27.2966 58.1919 24.4617 58.6667 21.3333C57.7485 22.9167 56.3456 24.1629 54.665 24.888C52.9844 25.613 51.1152 25.7785 49.3333 25.36ZM14.6667 38.64C16.6665 39.3287 18.4318 40.5672 19.76 42.2133C21.2239 44.0474 23.0878 45.5223 25.2093 46.5252C27.3308 47.5282 29.6536 48.0326 32 48C35.1564 48.2235 38.2811 47.25 40.752 45.2733C43.2229 43.2966 44.8586 40.4617 45.3333 37.3333C44.3982 38.898 42.9908 40.1257 41.3136 40.8397C39.6364 41.5536 37.776 41.7172 36 41.3066C34.0035 40.5978 32.2411 39.3522 30.9067 37.7066C29.4308 35.8917 27.5625 34.4353 25.4424 33.4468C23.3223 32.4583 21.0056 31.9637 18.6667 32C15.5103 31.7764 12.3856 32.75 9.91468 34.7267C7.44381 36.7034 5.80811 39.5382 5.33333 42.6666C6.25148 41.0832 7.65442 39.837 9.33502 39.112C11.0156 38.3869 12.8848 38.2214 14.6667 38.64Z" fill="white"/>
</svg>
