<svg width="48" height="48" viewBox="0 0 48 48" fill="none" xmlns="http://www.w3.org/2000/svg">
<path d="M38.25 6H9.75C7.68164 6 6 7.68164 6 9.75V38.25C6 40.3184 7.68164 42 9.75 42H38.25C40.3184 42 42 40.3184 42 38.25V9.75C42 7.68164 40.3184 6 38.25 6ZM40.5 38.25C40.5 39.4893 39.4893 40.5 38.25 40.5H9.75C8.51074 40.5 7.5 39.4893 7.5 38.25V9.75C7.5 8.51074 8.51074 7.5 9.75 7.5H38.25C39.4893 7.5 40.5 8.51074 40.5 9.75V38.25Z" fill="url(#paint0_linear_6_28)"/>
<path d="M33 18C30.5186 18 28.5 15.9814 28.5 13.5H25.5V27.75C25.5 29.8184 23.8184 31.5 21.75 31.5C19.6816 31.5 18 29.8184 18 27.75C18 25.6816 19.6816 24 21.75 24C22.0078 24 22.2568 24.0264 22.5 24.0762V21.0439C22.2539 21.0176 22.0049 21 21.75 21C18.0264 21 15 24.0264 15 27.75C15 31.4736 18.0264 34.5 21.75 34.5C25.4736 34.5 28.5 31.4736 28.5 27.75V19.4854C29.7568 20.4316 31.3096 21 33 21C33.5068 21 34.0078 20.9473 34.5 20.8447V17.7246C34.0166 17.8975 33.5127 18 33 18Z" fill="url(#paint1_linear_6_28)"/>
<defs>
<linearGradient id="paint0_linear_6_28" x1="24" y1="5.8245" x2="24" y2="42.7013" gradientUnits="userSpaceOnUse">
<stop stop-color="#FA5252"/>
<stop offset="1" stop-color="#FF9900"/>
</linearGradient>
<linearGradient id="paint1_linear_6_28" x1="24.75" y1="14.505" x2="24.75" y2="33.336" gradientUnits="userSpaceOnUse">
<stop stop-color="#FA5252"/>
<stop offset="1" stop-color="#FF9900"/>
</linearGradient>
</defs>
</svg>
