<svg width="50" height="15" viewBox="0 0 50 15" fill="none" xmlns="http://www.w3.org/2000/svg">
<g clip-path="url(#clip0_79_263)">
<path d="M13.785 9.40232C12.9753 9.40232 12.2164 9.05952 11.527 8.50147L11.6949 7.71369L11.7022 7.6845C11.8517 6.84573 12.3259 5.43782 13.785 5.43782C14.8793 5.43782 15.7694 6.32778 15.7694 7.42187C15.7657 8.51237 14.8757 9.40232 13.785 9.40232ZM13.785 3.42828C11.921 3.42828 10.4766 4.63915 9.88934 6.63049C8.99196 5.28467 8.31345 3.66901 7.9159 2.30859H5.90965V7.52764C5.90965 8.55616 5.07066 9.39493 4.04199 9.39493C3.01332 9.39493 2.17443 8.55616 2.17443 7.52764V2.30859H0.167992V7.52764C0.160693 9.66495 1.90067 11.4192 4.0382 11.4192C6.17582 11.4192 7.9158 9.66495 7.9158 7.52764V6.65239C8.30605 7.46566 8.78389 8.28623 9.36391 9.01573L8.13457 14.7927H10.1883L11.0783 10.6022C11.8589 11.1019 12.7563 11.4156 13.785 11.4156C15.9845 11.4156 17.7755 9.61386 17.7755 7.41458C17.7755 5.21899 15.9845 3.42828 13.785 3.42828H13.785Z" fill="#6FDA44"/>
<path d="M23.9001 3.65454L25.1951 8.87359L26.6214 3.65454H28.3212L26.1289 11.1968H24.4291L23.0831 5.9449L21.7407 11.1931H20.0409L17.8485 3.65094H19.5484L20.9746 8.86999L22.2695 3.65094H23.9V3.65463L23.9001 3.65454ZM32.3883 3.4284C30.1815 3.4284 28.3942 5.2191 28.3942 7.42199C28.3942 9.62858 30.1851 11.4157 32.3883 11.4157C34.5953 11.4157 36.3862 9.62858 36.3862 7.42199C36.3862 5.2155 34.5953 3.4284 32.3883 3.4284ZM32.3883 9.77444C31.0898 9.77444 30.0392 8.72403 30.0392 7.42569C30.0392 6.12725 31.0934 5.07694 32.3883 5.07694C33.687 5.07694 34.7374 6.12725 34.7374 7.42569C34.7374 8.72043 33.687 9.77444 32.3883 9.77444ZM41.2413 5.34317C40.0997 5.34317 39.1768 6.26951 39.1768 7.4074V11.1931H37.4659V3.65454H39.1768V4.81431C39.1768 4.81431 39.9063 3.65084 41.4055 3.65084H41.9307V5.34317H41.2413ZM46.9829 7.13027C48.1974 6.44456 49.0219 5.14252 49.0219 3.65084H47.311C47.311 4.90909 46.2898 5.93031 45.0313 5.93031H44.8015V0.0146484H43.0908V11.193H44.8015V7.64083H45.0058C45.1736 7.64083 45.3925 7.7503 45.491 7.88516L47.9203 11.1931H49.9703L46.9829 7.13027Z" fill="white"/>
</g>
<defs>
<clipPath id="clip0_79_263">
<rect width="49.8323" height="14.8877" fill="white" transform="translate(0.147583)"/>
</clipPath>
</defs>
</svg>
